<svg id="Ebene_1" xmlns="http://www.w3.org/2000/svg" width="50.187" height="50.101" viewBox="0 0 50.187 50.101">
  <path id="Path_88" data-name="Path 88" d="M46.843,20.265A7.888,7.888,0,0,0,52.424,6.8a8.088,8.088,0,0,0-11.158,0,7.9,7.9,0,0,0-1,9.93l-4.833,4.833a10.23,10.23,0,0,0-11.575,0l-4.833-4.833a7.9,7.9,0,0,0-1-9.93A8.088,8.088,0,0,0,6.86,6.8a7.891,7.891,0,0,0,9.93,12.162l4.823,4.82a9.784,9.784,0,0,0,0,11.6L16.781,40.2a8.131,8.131,0,0,0-9.918.991,7.892,7.892,0,1,0,12.165,1.231l4.82-4.82a9.784,9.784,0,0,0,11.6,0l4.82,4.82A7.892,7.892,0,1,0,52.43,41.2a8.127,8.127,0,0,0-9.918-.991l-4.836-4.829a9.784,9.784,0,0,0,0-11.6l4.82-4.82A7.81,7.81,0,0,0,46.843,20.265ZM43.494,9.028a4.736,4.736,0,1,1,6.7,6.7,4.851,4.851,0,0,1-6.695,0A4.739,4.739,0,0,1,43.494,9.028Zm-34.4,6.7a4.736,4.736,0,1,1,6.7,0A4.855,4.855,0,0,1,9.092,15.726Zm6.695,34.4a4.851,4.851,0,0,1-6.695,0,4.736,4.736,0,1,1,6.695,0Zm9.062-15.76a6.777,6.777,0,1,1,9.583,0A6.945,6.945,0,0,1,24.849,34.368Zm25.34,9.062a4.742,4.742,0,0,1,0,6.7,4.851,4.851,0,0,1-6.695,0,4.735,4.735,0,0,1,6.695-6.7Z" transform="translate(-4.552 -4.564)" fill="#0d7610"/>
</svg>
