<svg xmlns="http://www.w3.org/2000/svg" width="62.714" height="62.713" viewBox="0 0 62.714 62.713">
  <g id="Ebene_1" transform="translate(0 0)">
    <g id="Group_137" data-name="Group 137" transform="translate(0)">
      <path id="Path_81" data-name="Path 81" d="M23.121,10.311,14.456,21.864l-1.871-1.871a1.742,1.742,0,1,0-2.463,2.463l3.289,3.289a1.74,1.74,0,0,0,1.233.509c.042,0,.08,0,.125,0a1.745,1.745,0,0,0,1.268-.693L25.908,12.4a1.741,1.741,0,1,0-2.787-2.087Z" transform="translate(13.424 13.423)" fill="#0d7610"/>
      <path id="Path_82" data-name="Path 82" d="M24.972,6.777a18.2,18.2,0,1,0,18.194,18.2A18.217,18.217,0,0,0,24.972,6.777Zm0,32.911a14.713,14.713,0,1,1,14.71-14.713A14.73,14.73,0,0,1,24.972,39.688Z" transform="translate(6.385 6.382)" fill="#0d7610"/>
      <path id="Path_83" data-name="Path 83" d="M63.972,26.033H61.136a27.639,27.639,0,0,0-1.958-4.728l2.007-2a1.75,1.75,0,0,0,0-2.467L51.879,7.529a1.743,1.743,0,0,0-2.463,0l-2.007,2A27.922,27.922,0,0,0,42.68,7.575V4.742A1.743,1.743,0,0,0,40.938,3H27.779a1.743,1.743,0,0,0-1.742,1.742V7.575a28.383,28.383,0,0,0-4.731,1.962l-2-2a1.743,1.743,0,0,0-2.463,0l-9.31,9.306a1.743,1.743,0,0,0,0,2.463l2,2a28.44,28.44,0,0,0-1.955,4.728H4.742A1.743,1.743,0,0,0,3,27.775V40.935a1.743,1.743,0,0,0,1.742,1.742H7.578A27.908,27.908,0,0,0,9.533,47.4l-2,2.007a1.743,1.743,0,0,0,0,2.463l9.306,9.306a1.743,1.743,0,0,0,2.463,0l2.007-2a27.922,27.922,0,0,0,4.728,1.958v2.836a1.743,1.743,0,0,0,1.742,1.742H40.935a1.743,1.743,0,0,0,1.742-1.742V61.139A28.211,28.211,0,0,0,47.4,59.181l2.007,2a1.743,1.743,0,0,0,2.463,0l9.306-9.306a1.75,1.75,0,0,0,0-2.467l-2.007-2a28.16,28.16,0,0,0,1.958-4.728h2.84a1.743,1.743,0,0,0,1.742-1.742V27.779A1.743,1.743,0,0,0,63.972,26.033ZM62.23,39.2H59.819A1.741,1.741,0,0,0,58.133,40.5a24.358,24.358,0,0,1-2.617,6.317,1.739,1.739,0,0,0,.268,2.118l1.7,1.7-6.843,6.843-1.7-1.7a1.749,1.749,0,0,0-2.118-.268,24.35,24.35,0,0,1-6.32,2.62A1.747,1.747,0,0,0,39.2,59.818v2.411H29.521V59.822a1.741,1.741,0,0,0-1.307-1.686,24.349,24.349,0,0,1-6.32-2.62,1.75,1.75,0,0,0-2.118.268l-1.7,1.7-6.843-6.843,1.7-1.7a1.74,1.74,0,0,0,.268-2.115,24.583,24.583,0,0,1-2.617-6.32A1.741,1.741,0,0,0,8.9,39.2H6.484V29.524H8.9a1.741,1.741,0,0,0,1.686-1.307A24.532,24.532,0,0,1,13.2,21.9a1.759,1.759,0,0,0-.268-2.125l-1.7-1.7,6.843-6.843,1.7,1.7a1.736,1.736,0,0,0,2.118.268,24.349,24.349,0,0,1,6.32-2.62,1.747,1.747,0,0,0,1.307-1.686V6.484h9.675V8.892A1.741,1.741,0,0,0,40.5,10.578a24.349,24.349,0,0,1,6.32,2.62,1.734,1.734,0,0,0,2.118-.268l1.7-1.7,6.843,6.843-1.7,1.7a1.739,1.739,0,0,0-.268,2.118,24.408,24.408,0,0,1,2.617,6.317,1.741,1.741,0,0,0,1.686,1.307H62.23Z" transform="translate(-3 -3)" fill="#0d7610"/>
    </g>
  </g>
</svg>
