<svg id="Ebene_1" xmlns="http://www.w3.org/2000/svg" width="69.682" height="42.771" viewBox="0 0 69.682 42.771">
  <g id="Group_138" data-name="Group 138" transform="translate(0 0)">
    <path id="Path_84" data-name="Path 84" d="M9.742,9.484H20.194a1.742,1.742,0,1,0,0-3.484H9.742a1.742,1.742,0,1,0,0,3.484Z" transform="translate(12.905 -6)" fill="#0d7610"/>
    <path id="Path_85" data-name="Path 85" d="M51.953,21.912a1.742,1.742,0,0,0-1.408-1.188L38.1,18.915,32.533,7.637a1.815,1.815,0,0,0-3.122,0L23.843,18.915,11.4,20.724a1.746,1.746,0,0,0-.969,2.975l9,8.78L17.311,44.872a1.743,1.743,0,0,0,2.529,1.836l11.128-5.853L42.1,46.708a1.734,1.734,0,0,0,1.836-.132,1.739,1.739,0,0,0,.693-1.7L42.5,32.479l9-8.78A1.746,1.746,0,0,0,51.953,21.912ZM39.417,30.618a1.75,1.75,0,0,0-.5,1.543L40.6,41.976l-8.815-4.637a1.732,1.732,0,0,0-1.624,0l-8.815,4.637,1.683-9.815a1.74,1.74,0,0,0-.5-1.543l-7.132-6.951,9.857-1.432a1.739,1.739,0,0,0,1.31-.951l4.411-8.933,4.411,8.933a1.745,1.745,0,0,0,1.31.951l9.857,1.432Z" transform="translate(17.645 -4.139)" fill="#0d7610"/>
    <path id="Path_86" data-name="Path 86" d="M15.936,11.742A1.743,1.743,0,0,0,14.194,10H3.742a1.742,1.742,0,1,0,0,3.484H14.194A1.743,1.743,0,0,0,15.936,11.742Z" transform="translate(-2 3.936)" fill="#0d7610"/>
    <path id="Path_87" data-name="Path 87" d="M17.194,15H6.742a1.742,1.742,0,1,0,0,3.484H17.194a1.742,1.742,0,1,0,0-3.484Z" transform="translate(5.452 16.357)" fill="#0d7610"/>
  </g>
</svg>
